<?xml version="1.0" encoding="UTF-8"?>
<svg width="474px" height="105px" viewBox="0 0 474 105" version="1.1" xmlns="http://www.w3.org/2000/svg" xmlns:xlink="http://www.w3.org/1999/xlink">
    <title>Logo Annette Jepsen</title>
    <g id="logo-desktop" stroke="none" stroke-width="1" fill="none" fill-rule="evenodd">
        <path d="M64.8908686,59.3855232 L68.5976691,49.1205372 L85.5919237,49.1205372 L89.2416965,59.3855232 L94.3171618,59.3855232 L79.6610429,19.4661332 L74.5855776,19.4661332 L59.872431,59.3855232 L64.8908686,59.3855232 Z M84.1662312,45.2426536 L70.0233616,45.2426536 L77.0947964,25.5110694 L84.1662312,45.2426536 Z M104.753231,59.3855232 L104.753231,44.7294043 C104.753231,41.4598162 105.561123,38.9410928 107.176908,37.1732341 C108.792693,35.4053754 110.817176,34.521446 113.250358,34.521446 C118.116722,34.521446 120.549904,37.4678772 120.549904,43.3607395 L120.549904,43.3607395 L120.549904,59.3855232 L125.340231,59.3855232 L125.340231,42.8474902 C125.340231,38.6274404 124.342246,35.5004215 122.346276,33.4664336 C120.350307,31.4324456 117.67951,30.4154516 114.333885,30.4154516 C112.166832,30.4154516 110.22789,30.9287009 108.517059,31.9551995 C106.806228,32.9816981 105.494591,34.3883814 104.582148,36.1752493 L104.582148,36.1752493 L104.297009,31.099784 L99.9629041,31.099784 L99.9629041,59.3855232 L104.753231,59.3855232 Z M137.373075,59.3855232 L137.373075,44.7294043 C137.373075,41.4598162 138.180968,38.9410928 139.796753,37.1732341 C141.412537,35.4053754 143.437021,34.521446 145.870203,34.521446 C150.736566,34.521446 153.169748,37.4678772 153.169748,43.3607395 L153.169748,43.3607395 L153.169748,59.3855232 L157.960075,59.3855232 L157.960075,42.8474902 C157.960075,38.6274404 156.96209,35.5004215 154.966121,33.4664336 C152.970151,31.4324456 150.299354,30.4154516 146.953729,30.4154516 C144.786676,30.4154516 142.847735,30.9287009 141.136904,31.9551995 C139.426073,32.9816981 138.114435,34.3883814 137.201992,36.1752493 L137.201992,36.1752493 L136.916854,31.099784 L132.582749,31.099784 L132.582749,59.3855232 L137.373075,59.3855232 Z M177.91977,60.0698556 C181.265395,60.0698556 184.012229,59.2049355 186.160273,57.4750953 C188.308316,55.745255 189.762522,53.5686978 190.522892,50.9454236 L190.522892,50.9454236 L185.789593,50.9454236 C185.181297,52.5041808 184.211826,53.7397809 182.88118,54.6522241 C181.550534,55.5646673 179.89673,56.0208889 177.91977,56.0208889 C176.399031,56.0208889 174.963834,55.6597135 173.614179,54.9373626 C172.264523,54.2150118 171.142978,53.1409901 170.249544,51.7152976 C169.35611,50.2896051 168.852366,48.4932325 168.73831,46.3261799 L168.73831,46.3261799 L191.264252,46.3261799 C191.264252,45.7939214 191.273756,45.3186906 191.292766,44.9004874 C191.311775,44.4822843 191.32128,44.0640812 191.32128,43.645878 C191.32128,41.3267516 190.789021,39.159699 189.724504,37.1447202 C188.659987,35.1297415 187.129744,33.504452 185.133774,32.2688519 C183.137805,31.0332517 180.771155,30.4154516 178.033825,30.4154516 C175.258477,30.4154516 172.815791,31.0332517 170.705766,32.2688519 C168.595741,33.504452 166.951442,35.2342923 165.77287,37.4583726 C164.594297,39.6824529 164.005011,42.2772132 164.005011,45.2426536 C164.005011,48.2461125 164.603802,50.8503775 165.801384,53.0554485 C166.998965,55.2605196 168.643264,56.9808552 170.73428,58.2164554 C172.825295,59.4520555 175.220459,60.0698556 177.91977,60.0698556 Z M186.58798,42.6193794 L168.795338,42.6193794 C169.061467,39.9580868 170.078461,37.9336034 171.84632,36.5459294 C173.614179,35.1582553 175.638662,34.4644183 177.91977,34.4644183 C180.314933,34.4644183 182.329912,35.1867692 183.964706,36.6314709 C185.5995,38.0761727 186.473925,40.0721422 186.58798,42.6193794 L186.58798,42.6193794 Z M211.223947,59.3855232 L211.223947,55.2795288 L208.258506,55.2795288 C206.43362,55.2795288 205.160001,54.9658765 204.437651,54.3385718 C203.7153,53.7112671 203.354124,52.5041808 203.354124,50.7173128 L203.354124,50.7173128 L203.354124,35.1487507 L211.680168,35.1487507 L211.680168,31.099784 L203.354124,31.099784 L203.354124,24.3134877 L199.191102,24.3134877 L198.563797,31.099784 L193.659415,31.099784 L193.659415,35.1487507 L198.563797,35.1487507 L198.563797,50.7173128 C198.563797,53.986901 199.305158,56.2489997 200.787878,57.5036091 C202.270598,58.7582185 204.304586,59.3855232 206.889842,59.3855232 L206.889842,59.3855232 L211.223947,59.3855232 Z M233.293667,59.3855232 L233.293667,55.2795288 L230.328226,55.2795288 C228.50334,55.2795288 227.229721,54.9658765 226.50737,54.3385718 C225.78502,53.7112671 225.423844,52.5041808 225.423844,50.7173128 L225.423844,50.7173128 L225.423844,35.1487507 L233.749888,35.1487507 L233.749888,31.099784 L225.423844,31.099784 L225.423844,24.3134877 L221.260822,24.3134877 L220.633517,31.099784 L215.729135,31.099784 L215.729135,35.1487507 L220.633517,35.1487507 L220.633517,50.7173128 C220.633517,53.986901 221.374877,56.2489997 222.857598,57.5036091 C224.340318,58.7582185 226.374306,59.3855232 228.959562,59.3855232 L228.959562,59.3855232 L233.293667,59.3855232 Z M250.972254,60.0698556 C254.317879,60.0698556 257.064713,59.2049355 259.212756,57.4750953 C261.3608,55.745255 262.815006,53.5686978 263.575375,50.9454236 L263.575375,50.9454236 L258.842076,50.9454236 C258.233781,52.5041808 257.26431,53.7397809 255.933664,54.6522241 C254.603017,55.5646673 252.949214,56.0208889 250.972254,56.0208889 C249.451515,56.0208889 248.016318,55.6597135 246.666662,54.9373626 C245.317007,54.2150118 244.195462,53.1409901 243.302028,51.7152976 C242.408594,50.2896051 241.904849,48.4932325 241.790794,46.3261799 L241.790794,46.3261799 L264.316736,46.3261799 C264.316736,45.7939214 264.32624,45.3186906 264.345249,44.9004874 C264.364259,44.4822843 264.373763,44.0640812 264.373763,43.645878 C264.373763,41.3267516 263.841505,39.159699 262.776988,37.1447202 C261.712471,35.1297415 260.182227,33.504452 258.186258,32.2688519 C256.190288,31.0332517 253.823639,30.4154516 251.086309,30.4154516 C248.310961,30.4154516 245.868275,31.0332517 243.75825,32.2688519 C241.648225,33.504452 240.003926,35.2342923 238.825354,37.4583726 C237.646781,39.6824529 237.057495,42.2772132 237.057495,45.2426536 C237.057495,48.2461125 237.656286,50.8503775 238.853867,53.0554485 C240.051449,55.2605196 241.695748,56.9808552 243.786764,58.2164554 C245.877779,59.4520555 248.272943,60.0698556 250.972254,60.0698556 Z M259.640464,42.6193794 L241.847822,42.6193794 C242.113951,39.9580868 243.130945,37.9336034 244.898804,36.5459294 C246.666662,35.1582553 248.691146,34.4644183 250.972254,34.4644183 C253.367417,34.4644183 255.382396,35.1867692 257.01719,36.6314709 C258.651984,38.0761727 259.526409,40.0721422 259.640464,42.6193794 L259.640464,42.6193794 Z M294.997638,60.0698556 C298.495337,60.0698556 301.223162,59.0813755 303.181113,57.1044152 C305.139064,55.127455 306.11804,52.3711161 306.11804,48.8353987 L306.11804,48.8353987 L306.11804,19.4661332 L301.327713,19.4661332 L301.327713,48.8353987 C301.327713,50.812359 300.861987,52.4661623 299.930534,53.7968086 C298.999082,55.127455 297.335774,55.7927781 294.94061,55.7927781 C292.46941,55.7927781 290.73957,55.1084457 289.75109,53.7397809 C288.76261,52.3711161 288.26837,50.6792944 288.26837,48.6643156 L288.26837,48.6643156 L283.421015,48.6643156 C283.421015,52.2380515 284.447514,55.0324088 286.500511,57.0473875 C288.553508,59.0623663 291.385884,60.0698556 294.997638,60.0698556 Z M326.990178,60.0698556 C330.335803,60.0698556 333.082637,59.2049355 335.23068,57.4750953 C337.378724,55.745255 338.83293,53.5686978 339.5933,50.9454236 L339.5933,50.9454236 L334.86,50.9454236 C334.251705,52.5041808 333.282234,53.7397809 331.951588,54.6522241 C330.620941,55.5646673 328.967138,56.0208889 326.990178,56.0208889 C325.469439,56.0208889 324.034242,55.6597135 322.684586,54.9373626 C321.334931,54.2150118 320.213386,53.1409901 319.319952,51.7152976 C318.426518,50.2896051 317.922774,48.4932325 317.808718,46.3261799 L317.808718,46.3261799 L340.33466,46.3261799 C340.33466,45.7939214 340.344164,45.3186906 340.363173,44.9004874 C340.382183,44.4822843 340.391687,44.0640812 340.391687,43.645878 C340.391687,41.3267516 339.859429,39.159699 338.794912,37.1447202 C337.730395,35.1297415 336.200151,33.504452 334.204182,32.2688519 C332.208212,31.0332517 329.841563,30.4154516 327.104233,30.4154516 C324.328885,30.4154516 321.886199,31.0332517 319.776174,32.2688519 C317.666149,33.504452 316.02185,35.2342923 314.843278,37.4583726 C313.664705,39.6824529 313.075419,42.2772132 313.075419,45.2426536 C313.075419,48.2461125 313.67421,50.8503775 314.871792,53.0554485 C316.069373,55.2605196 317.713672,56.9808552 319.804688,58.2164554 C321.895703,59.4520555 324.290867,60.0698556 326.990178,60.0698556 Z M335.658388,42.6193794 L317.865746,42.6193794 C318.131875,39.9580868 319.148869,37.9336034 320.916728,36.5459294 C322.684586,35.1582553 324.70907,34.4644183 326.990178,34.4644183 C329.385341,34.4644183 331.40032,35.1867692 333.035114,36.6314709 C334.669908,38.0761727 335.544333,40.0721422 335.658388,42.6193794 L335.658388,42.6193794 Z M351.512089,71.9316172 L351.512089,54.6522241 C352.46255,56.3630551 353.84072,57.6937015 355.646597,58.6441631 C357.452474,59.5946248 359.514976,60.0698556 361.834103,60.0698556 C364.647469,60.0698556 367.109165,59.4330463 369.21919,58.1594277 C371.329215,56.885809 372.964009,55.1369596 374.123572,52.9128793 C375.283135,50.688799 375.862917,48.1510663 375.862917,45.2996813 C375.862917,42.4482963 375.283135,39.9010591 374.123572,37.6579695 C372.964009,35.41488 371.338719,33.6470213 369.247704,32.3543934 C367.156688,31.0617656 364.704497,30.4154516 361.89113,30.4154516 C359.267856,30.4154516 357.110308,30.9667194 355.418486,32.0692549 C353.726664,33.1717905 352.424532,34.4073906 351.512089,35.7760554 L351.512089,35.7760554 L351.055867,31.099784 L346.721762,31.099784 L346.721762,71.9316172 L351.512089,71.9316172 Z M361.320853,55.9068335 C359.41993,55.9068335 357.747117,55.4601165 356.302416,54.5666826 C354.857714,53.6732486 353.71716,52.4281438 352.880754,50.8313682 C352.044347,49.2345926 351.626144,47.3716878 351.626144,45.2426536 C351.626144,43.1136195 352.044347,41.2507146 352.880754,39.653939 C353.71716,38.0571634 354.857714,36.8120586 356.302416,35.9186247 C357.747117,35.0251907 359.41993,34.5784737 361.320853,34.5784737 C363.221777,34.5784737 364.894589,35.0251907 366.339291,35.9186247 C367.783993,36.8120586 368.924547,38.0571634 369.760953,39.653939 C370.597359,41.2507146 371.015562,43.1136195 371.015562,45.2426536 C371.015562,47.3716878 370.597359,49.2345926 369.760953,50.8313682 C368.924547,52.4281438 367.783993,53.6732486 366.339291,54.5666826 C364.894589,55.4601165 363.221777,55.9068335 361.320853,55.9068335 Z M393.370421,60.0698556 C396.716046,60.0698556 399.367834,59.242954 401.325785,57.5891507 C403.283736,55.9353474 404.243702,53.8348271 404.205684,51.2875898 C404.205684,49.2345926 403.701939,47.6663309 402.69445,46.5828046 C401.68696,45.4992783 400.394332,44.6818812 398.816566,44.1306135 C397.2388,43.5793457 395.575492,43.1136195 393.826642,42.7334348 C391.773645,42.2772132 390.148356,41.7259455 388.950774,41.0796315 C387.753192,40.4333176 387.154401,39.5398836 387.154401,38.3993296 C387.154401,37.2207572 387.620128,36.2702955 388.55158,35.5479446 C389.483032,34.8255938 390.804174,34.4644183 392.515005,34.4644183 C394.263855,34.4644183 395.661033,34.8731168 396.706541,35.6905139 C397.752049,36.5079109 398.369849,37.6389603 398.559941,39.083662 L398.559941,39.083662 L403.29324,39.083662 C402.989093,36.308314 401.877053,34.1697752 399.95712,32.6680458 C398.037187,31.1663163 395.575492,30.4154516 392.572033,30.4154516 C389.4165,30.4154516 386.916786,31.2043348 385.07289,32.7821012 C383.228995,34.3598675 382.307047,36.3843509 382.307047,38.8555512 C382.307047,40.5663822 382.820296,41.9445516 383.846795,42.9900595 C384.873293,44.0355673 386.146912,44.8434597 387.667651,45.4137367 C389.188389,45.9840137 390.709128,46.4212261 392.229867,46.7253738 C394.472956,47.1815954 396.212301,47.6948447 397.447901,48.2651217 C398.683501,48.8353987 399.301301,49.9759527 399.301301,51.6867837 C399.301301,52.8653562 398.826071,53.8823502 397.875609,54.7377657 C396.925147,55.5931812 395.442427,56.0208889 393.427448,56.0208889 C391.260396,56.0208889 389.54006,55.4791258 388.266441,54.3955995 C386.992823,53.3120732 386.20394,52.0289499 385.899792,50.5462297 L385.899792,50.5462297 L380.99541,50.5462297 C381.375594,53.4736517 382.687231,55.7927781 384.930321,57.5036091 C387.173411,59.2144401 389.986777,60.0698556 393.370421,60.0698556 Z M423.766185,60.0698556 C427.11181,60.0698556 429.858644,59.2049355 432.006687,57.4750953 C434.154731,55.745255 435.608937,53.5686978 436.369306,50.9454236 L436.369306,50.9454236 L431.636007,50.9454236 C431.027712,52.5041808 430.058241,53.7397809 428.727595,54.6522241 C427.396948,55.5646673 425.743145,56.0208889 423.766185,56.0208889 C422.245446,56.0208889 420.810249,55.6597135 419.460593,54.9373626 C418.110938,54.2150118 416.989393,53.1409901 416.095959,51.7152976 C415.202525,50.2896051 414.69878,48.4932325 414.584725,46.3261799 L414.584725,46.3261799 L437.110666,46.3261799 C437.110666,45.7939214 437.120171,45.3186906 437.13918,44.9004874 C437.15819,44.4822843 437.167694,44.0640812 437.167694,43.645878 C437.167694,41.3267516 436.635436,39.159699 435.570919,37.1447202 C434.506402,35.1297415 432.976158,33.504452 430.980189,32.2688519 C428.984219,31.0332517 426.61757,30.4154516 423.88024,30.4154516 C421.104892,30.4154516 418.662206,31.0332517 416.552181,32.2688519 C414.442156,33.504452 412.797857,35.2342923 411.619285,37.4583726 C410.440712,39.6824529 409.851426,42.2772132 409.851426,45.2426536 C409.851426,48.2461125 410.450217,50.8503775 411.647798,53.0554485 C412.84538,55.2605196 414.489679,56.9808552 416.580694,58.2164554 C418.67171,59.4520555 421.066874,60.0698556 423.766185,60.0698556 Z M432.434395,42.6193794 L414.641753,42.6193794 C414.907882,39.9580868 415.924876,37.9336034 417.692735,36.5459294 C419.460593,35.1582553 421.485077,34.4644183 423.766185,34.4644183 C426.161348,34.4644183 428.176327,35.1867692 429.811121,36.6314709 C431.445915,38.0761727 432.32034,40.0721422 432.434395,42.6193794 L432.434395,42.6193794 Z M448.288096,59.3855232 L448.288096,44.7294043 C448.288096,41.4598162 449.095988,38.9410928 450.711773,37.1732341 C452.327558,35.4053754 454.352041,34.521446 456.785223,34.521446 C461.651587,34.521446 464.084769,37.4678772 464.084769,43.3607395 L464.084769,43.3607395 L464.084769,59.3855232 L468.875095,59.3855232 L468.875095,42.8474902 C468.875095,38.6274404 467.877111,35.5004215 465.881141,33.4664336 C463.885172,31.4324456 461.214374,30.4154516 457.868749,30.4154516 C455.701697,30.4154516 453.762755,30.9287009 452.051924,31.9551995 C450.341093,32.9816981 449.029456,34.3883814 448.117013,36.1752493 L448.117013,36.1752493 L447.831874,31.099784 L443.497769,31.099784 L443.497769,59.3855232 L448.288096,59.3855232 Z" id="AnnetteJepsen" fill="#2F4473" fill-rule="nonzero"></path>
        <path d="M76.9451,18.2831531 L76.9451,16.5311531 L68.5451,16.5311531 L76.8491,3.06715312 L76.8491,1.48315312 L66.3371,1.48315312 L66.3371,3.23515312 L74.4971,3.23515312 L66.2171,16.6991531 L66.2171,18.2831531 L76.9451,18.2831531 Z M83.6971,18.5711531 C84.7851,18.5711531 85.6531,18.3351531 86.3011,17.8631531 C86.9491,17.3911531 87.4411,16.8191531 87.7771,16.1471531 L87.7771,16.1471531 L87.8971,18.2831531 L89.6971,18.2831531 L89.6971,10.9631531 C89.6971,9.49115312 89.2771,8.31115313 88.4371,7.42315312 C87.5971,6.53515312 86.3451,6.09115312 84.6811,6.09115312 C83.8331,6.09115312 83.0331,6.24715312 82.2811,6.55915312 C81.5291,6.87115312 80.9011,7.32315312 80.3971,7.91515312 C79.8931,8.50715312 79.6011,9.23515312 79.5211,10.0991531 L79.5211,10.0991531 L81.5851,10.0991531 C81.7291,9.34715313 82.0851,8.77515312 82.6531,8.38315312 C83.2211,7.99115312 83.8971,7.79515312 84.6811,7.79515312 C85.5931,7.79515312 86.3211,8.06315312 86.8651,8.59915312 C87.4091,9.13515312 87.6811,9.92315312 87.6811,10.9631531 L87.6811,10.9631531 L87.6811,11.1071531 L84.4651,11.1071531 C82.8651,11.1071531 81.6011,11.4351531 80.6731,12.0911531 C79.7451,12.7471531 79.2811,13.6831531 79.2811,14.8991531 C79.2811,15.5551531 79.4411,16.1631531 79.7611,16.7231531 C80.0811,17.2831531 80.5691,17.7311531 81.2251,18.0671531 C81.8811,18.4031531 82.7051,18.5711531 83.6971,18.5711531 Z M84.0091,16.8671531 C83.1771,16.8671531 82.5331,16.6791531 82.0771,16.3031531 C81.6211,15.9271531 81.3931,15.4271531 81.3931,14.8031531 C81.3931,14.1951531 81.6371,13.6871531 82.1251,13.2791531 C82.6131,12.8711531 83.4491,12.6671531 84.6331,12.6671531 L84.6331,12.6671531 L87.6811,12.6671531 L87.6811,12.6911531 C87.6811,13.3951531 87.5371,14.0671531 87.2491,14.7071531 C86.9611,15.3471531 86.5411,15.8671531 85.9891,16.2671531 C85.4371,16.6671531 84.7771,16.8671531 84.0091,16.8671531 Z M94.8171,18.2831531 L94.8171,12.1151531 C94.8171,10.7391531 95.1691,9.67915312 95.8731,8.93515312 C96.5771,8.19115312 97.4491,7.81915312 98.4891,7.81915312 C100.4891,7.81915312 101.4891,9.05915312 101.4891,11.5391531 L101.4891,11.5391531 L101.4891,18.2831531 L103.4811,18.2831531 L103.4811,11.3231531 C103.4811,9.54715312 103.0651,8.23115312 102.2331,7.37515312 C101.4011,6.51915312 100.2971,6.09115312 98.9211,6.09115312 C98.0571,6.09115312 97.2571,6.29515312 96.5211,6.70315313 C95.7851,7.11115312 95.2171,7.68315312 94.8171,8.41915312 L94.8171,8.41915312 L94.8171,1.00315312 L92.8011,1.00315312 L92.8011,18.2831531 L94.8171,18.2831531 Z M108.6251,18.2831531 L108.6251,12.1151531 C108.6251,10.7391531 108.9651,9.67915312 109.6451,8.93515312 C110.3251,8.19115312 111.1771,7.81915312 112.2011,7.81915312 C114.2491,7.81915312 115.2731,9.05915312 115.2731,11.5391531 L115.2731,11.5391531 L115.2731,18.2831531 L117.2891,18.2831531 L117.2891,11.3231531 C117.2891,9.54715312 116.8691,8.23115312 116.0291,7.37515312 C115.1891,6.51915312 114.0651,6.09115312 112.6571,6.09115312 C111.7451,6.09115312 110.9291,6.30715312 110.2091,6.73915312 C109.4891,7.17115312 108.9371,7.76315312 108.5531,8.51515312 L108.5531,8.51515312 L108.4331,6.37915312 L106.6091,6.37915312 L106.6091,18.2831531 L108.6251,18.2831531 Z M124.3771,18.5711531 C125.4651,18.5711531 126.3331,18.3351531 126.9811,17.8631531 C127.6291,17.3911531 128.1211,16.8191531 128.4571,16.1471531 L128.4571,16.1471531 L128.5771,18.2831531 L130.3771,18.2831531 L130.3771,10.9631531 C130.3771,9.49115312 129.9571,8.31115313 129.1171,7.42315312 C128.2771,6.53515312 127.0251,6.09115312 125.3611,6.09115312 C124.5131,6.09115312 123.7131,6.24715312 122.9611,6.55915312 C122.2091,6.87115312 121.5811,7.32315312 121.0771,7.91515312 C120.5731,8.50715312 120.2811,9.23515312 120.2011,10.0991531 L120.2011,10.0991531 L122.2651,10.0991531 C122.4091,9.34715313 122.7651,8.77515312 123.3331,8.38315312 C123.9011,7.99115312 124.5771,7.79515312 125.3611,7.79515312 C126.2731,7.79515312 127.0011,8.06315312 127.5451,8.59915312 C128.0891,9.13515312 128.3611,9.92315312 128.3611,10.9631531 L128.3611,10.9631531 L128.3611,11.1071531 L125.1451,11.1071531 C123.5451,11.1071531 122.2811,11.4351531 121.3531,12.0911531 C120.4251,12.7471531 119.9611,13.6831531 119.9611,14.8991531 C119.9611,15.5551531 120.1211,16.1631531 120.4411,16.7231531 C120.7611,17.2831531 121.2491,17.7311531 121.9051,18.0671531 C122.5611,18.4031531 123.3851,18.5711531 124.3771,18.5711531 Z M124.6891,16.8671531 C123.8571,16.8671531 123.2131,16.6791531 122.7571,16.3031531 C122.3011,15.9271531 122.0731,15.4271531 122.0731,14.8031531 C122.0731,14.1951531 122.3171,13.6871531 122.8051,13.2791531 C123.2931,12.8711531 124.1291,12.6671531 125.3131,12.6671531 L125.3131,12.6671531 L128.3611,12.6671531 L128.3611,12.6911531 C128.3611,13.3951531 128.2171,14.0671531 127.9291,14.7071531 C127.6411,15.3471531 127.2211,15.8671531 126.6691,16.2671531 C126.1171,16.6671531 125.4571,16.8671531 124.6891,16.8671531 Z M135.4971,18.2831531 L135.4971,12.2831531 C135.4971,11.2431531 135.6731,10.4271531 136.0251,9.83515312 C136.3771,9.24315312 136.8491,8.82315313 137.4411,8.57515312 C138.0331,8.32715312 138.6811,8.20315313 139.3851,8.20315313 L139.3851,8.20315313 L139.9371,8.20315313 L139.9371,6.09115312 C138.8331,6.09115312 137.9051,6.32315312 137.1531,6.78715312 C136.4011,7.25115312 135.8411,7.87515312 135.4731,8.65915312 L135.4731,8.65915312 L135.3051,6.37915312 L133.4811,6.37915312 L133.4811,18.2831531 L135.4971,18.2831531 Z M150.4571,18.2831531 L150.4571,16.6031531 L143.7131,16.6031531 L150.3371,8.03515313 L150.3371,6.37915312 L141.5771,6.37915312 L141.5771,8.05915312 L148.0811,8.05915312 L141.4571,16.6271531 L141.4571,18.2831531 L150.4571,18.2831531 Z M159.7291,18.2831531 L159.7291,16.5551531 L158.4811,16.5551531 C157.7131,16.5551531 157.1771,16.4231531 156.8731,16.1591531 C156.5691,15.8951531 156.4171,15.3871531 156.4171,14.6351531 L156.4171,14.6351531 L156.4171,8.08315312 L159.9211,8.08315312 L159.9211,6.37915312 L156.4171,6.37915312 L156.4171,3.52315313 L154.6651,3.52315313 L154.4011,6.37915312 L152.3371,6.37915312 L152.3371,8.08315312 L154.4011,8.08315312 L154.4011,14.6351531 C154.4011,16.0111531 154.7131,16.9631531 155.3371,17.4911531 C155.9611,18.0191531 156.8171,18.2831531 157.9051,18.2831531 L157.9051,18.2831531 L159.7291,18.2831531 Z M164.5851,23.5631531 L164.5851,16.2911531 C164.9851,17.0111531 165.5651,17.5711531 166.3251,17.9711531 C167.0851,18.3711531 167.9531,18.5711531 168.9291,18.5711531 C170.1131,18.5711531 171.1491,18.3031531 172.0371,17.7671531 C172.9251,17.2311531 173.6131,16.4951531 174.1011,15.5591531 C174.5891,14.6231531 174.8331,13.5551531 174.8331,12.3551531 C174.8331,11.1551531 174.5891,10.0831531 174.1011,9.13915312 C173.6131,8.19515312 172.9291,7.45115312 172.0491,6.90715313 C171.1691,6.36315312 170.1371,6.09115312 168.9531,6.09115312 C167.8491,6.09115312 166.9411,6.32315312 166.2291,6.78715312 C165.5171,7.25115312 164.9691,7.77115312 164.5851,8.34715312 L164.5851,8.34715312 L164.3931,6.37915312 L162.5691,6.37915312 L162.5691,23.5631531 L164.5851,23.5631531 Z M168.7131,16.8191531 C167.9131,16.8191531 167.2091,16.6311531 166.6011,16.2551531 C165.9931,15.8791531 165.5131,15.3551531 165.1611,14.6831531 C164.8091,14.0111531 164.6331,13.2271531 164.6331,12.3311531 C164.6331,11.4351531 164.8091,10.6511531 165.1611,9.97915312 C165.5131,9.30715312 165.9931,8.78315313 166.6011,8.40715313 C167.2091,8.03115312 167.9131,7.84315313 168.7131,7.84315313 C169.5131,7.84315313 170.2171,8.03115312 170.8251,8.40715313 C171.4331,8.78315313 171.9131,9.30715312 172.2651,9.97915312 C172.6171,10.6511531 172.7931,11.4351531 172.7931,12.3311531 C172.7931,13.2271531 172.6171,14.0111531 172.2651,14.6831531 C171.9131,15.3551531 171.4331,15.8791531 170.8251,16.2551531 C170.2171,16.6311531 169.5131,16.8191531 168.7131,16.8191531 Z M179.7371,18.2831531 L179.7371,12.2831531 C179.7371,11.2431531 179.9131,10.4271531 180.2651,9.83515312 C180.6171,9.24315312 181.0891,8.82315313 181.6811,8.57515312 C182.2731,8.32715312 182.9211,8.20315313 183.6251,8.20315313 L183.6251,8.20315313 L184.1771,8.20315313 L184.1771,6.09115312 C183.0731,6.09115312 182.1451,6.32315312 181.3931,6.78715312 C180.6411,7.25115312 180.0811,7.87515312 179.7131,8.65915312 L179.7131,8.65915312 L179.5451,6.37915312 L177.7211,6.37915312 L177.7211,18.2831531 L179.7371,18.2831531 Z M190.4731,18.5711531 C191.5611,18.5711531 192.4291,18.3351531 193.0771,17.8631531 C193.7251,17.3911531 194.2171,16.8191531 194.5531,16.1471531 L194.5531,16.1471531 L194.6731,18.2831531 L196.4731,18.2831531 L196.4731,10.9631531 C196.4731,9.49115312 196.0531,8.31115313 195.2131,7.42315312 C194.3731,6.53515312 193.1211,6.09115312 191.4571,6.09115312 C190.6091,6.09115312 189.8091,6.24715312 189.0571,6.55915312 C188.3051,6.87115312 187.6771,7.32315312 187.1731,7.91515312 C186.6691,8.50715312 186.3771,9.23515312 186.2971,10.0991531 L186.2971,10.0991531 L188.3611,10.0991531 C188.5051,9.34715313 188.8611,8.77515312 189.4291,8.38315312 C189.9971,7.99115312 190.6731,7.79515312 191.4571,7.79515312 C192.3691,7.79515312 193.0971,8.06315312 193.6411,8.59915312 C194.1851,9.13515312 194.4571,9.92315312 194.4571,10.9631531 L194.4571,10.9631531 L194.4571,11.1071531 L191.2411,11.1071531 C189.6411,11.1071531 188.3771,11.4351531 187.4491,12.0911531 C186.5211,12.7471531 186.0571,13.6831531 186.0571,14.8991531 C186.0571,15.5551531 186.2171,16.1631531 186.5371,16.7231531 C186.8571,17.2831531 187.3451,17.7311531 188.0011,18.0671531 C188.6571,18.4031531 189.4811,18.5711531 190.4731,18.5711531 Z M190.7851,16.8671531 C189.9531,16.8671531 189.3091,16.6791531 188.8531,16.3031531 C188.3971,15.9271531 188.1691,15.4271531 188.1691,14.8031531 C188.1691,14.1951531 188.4131,13.6871531 188.9011,13.2791531 C189.3891,12.8711531 190.2251,12.6671531 191.4091,12.6671531 L191.4091,12.6671531 L194.4571,12.6671531 L194.4571,12.6911531 C194.4571,13.3951531 194.3131,14.0671531 194.0251,14.7071531 C193.7371,15.3471531 193.3171,15.8671531 192.7651,16.2671531 C192.2131,16.6671531 191.5531,16.8671531 190.7851,16.8671531 Z M200.5611,18.2831531 L203.8971,13.3631531 L207.2571,18.2831531 L209.4171,18.2831531 L205.2891,12.3311531 L209.4171,6.37915312 L207.2571,6.37915312 L203.8971,11.2991531 L200.5611,6.37915312 L198.3771,6.37915312 L202.5051,12.3311531 L198.3771,18.2831531 L200.5611,18.2831531 Z M212.8331,3.73915312 C213.2171,3.73915312 213.5451,3.60715312 213.8171,3.34315313 C214.0891,3.07915312 214.2251,2.74715312 214.2251,2.34715312 C214.2251,1.96315312 214.0891,1.64315312 213.8171,1.38715312 C213.5451,1.13115312 213.2171,1.00315312 212.8331,1.00315312 C212.4331,1.00315312 212.1011,1.13115312 211.8371,1.38715312 C211.5731,1.64315312 211.4411,1.96315312 211.4411,2.34715312 C211.4411,2.74715312 211.5731,3.07915312 211.8371,3.34315313 C212.1011,3.60715312 212.4331,3.73915312 212.8331,3.73915312 Z M213.8411,18.2831531 L213.8411,6.37915312 L211.8251,6.37915312 L211.8251,18.2831531 L213.8411,18.2831531 Z M221.9851,18.5711531 C223.3931,18.5711531 224.5091,18.2231531 225.3331,17.5271531 C226.1571,16.8311531 226.5611,15.9471531 226.5451,14.8751531 C226.5451,14.0111531 226.3331,13.3511531 225.9091,12.8951531 C225.4851,12.4391531 224.9411,12.0951531 224.2771,11.8631531 C223.6131,11.6311531 222.9131,11.4351531 222.1771,11.2751531 C221.3131,11.0831531 220.6291,10.8511531 220.1251,10.5791531 C219.6211,10.3071531 219.3691,9.93115312 219.3691,9.45115312 C219.3691,8.95515312 219.5651,8.55515312 219.9571,8.25115312 C220.3491,7.94715312 220.9051,7.79515312 221.6251,7.79515312 C222.3611,7.79515312 222.9491,7.96715312 223.3891,8.31115312 C223.8291,8.65515312 224.0891,9.13115312 224.1691,9.73915312 L224.1691,9.73915312 L226.1611,9.73915312 C226.0331,8.57115312 225.5651,7.67115312 224.7571,7.03915312 C223.9491,6.40715312 222.9131,6.09115312 221.6491,6.09115312 C220.3211,6.09115312 219.2691,6.42315312 218.4931,7.08715313 C217.7171,7.75115312 217.3291,8.60315312 217.3291,9.64315312 C217.3291,10.3631531 217.5451,10.9431531 217.9771,11.3831531 C218.4091,11.8231531 218.9451,12.1631531 219.5851,12.4031531 C220.2251,12.6431531 220.8651,12.8271531 221.5051,12.9551531 C222.4491,13.1471531 223.1811,13.3631531 223.7011,13.6031531 C224.2211,13.8431531 224.4811,14.3231531 224.4811,15.0431531 C224.4811,15.5391531 224.2811,15.9671531 223.8811,16.3271531 C223.4811,16.6871531 222.8571,16.8671531 222.0091,16.8671531 C221.0971,16.8671531 220.3731,16.6391531 219.8371,16.1831531 C219.3011,15.7271531 218.9691,15.1871531 218.8411,14.5631531 L218.8411,14.5631531 L216.7771,14.5631531 C216.9371,15.7951531 217.4891,16.7711531 218.4331,17.4911531 C219.3771,18.2111531 220.5611,18.5711531 221.9851,18.5711531 Z" id="Zahnarztpraxis" fill="#6D6E6D" fill-rule="nonzero"></path>
        <path d="M44.122,105 C44.122,105 25.829,97.602 10.888,54.098 C10.888,54.098 3.479,32.486 12.047,27.083 C12.047,27.083 14.2,25.16 21.029,28.459 C21.029,28.459 49.009,43.055 54.512,8.443 C54.512,8.443 42.595,35.905 21.973,23.349 C21.973,23.349 9.365,14.66 3.502,24.094 C-4.196,36.484 3.311,57.163 2.545,55.563 C2.545,55.563 18.142,103.517 44.122,105" id="Signet" fill="#2F4473"></path>
    </g>
</svg>