<?xml version="1.0" standalone="no"?>
<!DOCTYPE svg PUBLIC "-//W3C//DTD SVG 20010904//EN"
 "http://www.w3.org/TR/2001/REC-SVG-20010904/DTD/svg10.dtd">
<svg version="1.0" xmlns="http://www.w3.org/2000/svg"
 width="498.000000pt" height="498.000000pt" viewBox="0 0 498.000000 498.000000"
 preserveAspectRatio="xMidYMid meet">
<metadata>
Created by potrace 1.11, written by Peter Selinger 2001-2013
</metadata>
<g transform="translate(0.000000,498.000000) scale(0.100000,-0.100000)"
fill="#000000" stroke="none">
<path d="M3575 4412 c-140 -268 -351 -494 -560 -600 -243 -122 -493 -95 -786
85 -123 75 -281 125 -399 125 -157 0 -259 -64 -345 -217 -32 -57 -82 -192 -92
-245 -2 -14 -7 -38 -12 -55 -24 -94 -21 -430 5 -595 16 -96 47 -244 69 -326
64 -234 256 -676 421 -966 26 -46 53 -92 59 -103 71 -128 257 -390 354 -499
85 -97 233 -235 318 -298 50 -37 94 -68 98 -68 3 0 22 -11 43 -24 91 -57 255
-114 377 -130 l50 -7 -87 58 c-48 32 -113 81 -144 108 -68 59 -207 201 -259
265 -20 25 -44 54 -54 65 -51 61 -219 305 -266 387 -5 10 -32 55 -58 100 -223
385 -485 1022 -561 1363 -76 338 -76 595 -1 748 32 65 87 125 134 144 69 29
190 6 352 -67 202 -91 358 -126 550 -123 330 5 587 201 729 558 27 69 72 224
85 294 2 14 7 38 11 54 3 15 4 27 2 27 -2 0 -16 -26 -33 -58z"/>
</g>
</svg>
